<svg xmlns="http://www.w3.org/2000/svg" width="147.143" height="146.835" viewBox="0 0 147.143 146.835">
  <path d="M22.523,39.877c.241.812-.131,1.289-.815,1.691a1.537,1.537,0,0,0-.7.89c-.166.9-1.451.818-1.456,2.05,0,.776-1.156,1.517-1.716,2.327-.641.928-1.2,1.913-1.785,2.879a11.186,11.186,0,0,0-1.472,2.573c-.412,1.5-1.486,2.687-1.872,4.114-.413,1.525-1.7,2.792-1.369,4.532a.519.519,0,0,1-.177.37c-1.045,1.006-.868,2.357-1.115,3.614s-.855,2.426-1.178,3.668c-.347,1.334-.533,2.71-.815,4.062-.16.769-.421,1.519-.544,2.292-.1.607.014,1.247-.081,1.855q-.446,2.846-.988,5.676c-.158.828-.465,1.629-.616,2.458-.06.33.185.7.175,1.055A4.464,4.464,0,0,1,5.733,87a8.544,8.544,0,0,1,.092,1.041c-.021.867-.049,1.737-.137,2.6a5.009,5.009,0,0,1-.36,1.071c-.026.075-.095.173-.069.221.71,1.356.094,2.62-.445,3.9,0-1.731-.025-3.463.007-5.194.034-1.8.108-3.609.2-5.412a2.04,2.04,0,0,1,.34-.942c.406-.63.1-.866-.645-1.131-.114,1.062-.179,2.029-.333,2.982a3.488,3.488,0,0,0-.041,2.116c.165.4-.443,1.055-.452,1.6a21.2,21.2,0,0,0,.3,2.44,2.617,2.617,0,0,1-.028,1.322c-1.263,2.5-.09,5.186-.647,7.847-.4-1.966.325-3.96-.455-5.769l-.391.037q.239,3.9.478,7.794l.34.01.208-.854c.043.03.114.054.118.086.118,1.013.257,2.024.324,3.04.018.276-.214.56-.275.852a1.659,1.659,0,0,0,.069.54l.291,1.948-.413.2-.275-.534-.38,1.385a9.116,9.116,0,0,1-1.635-4.748,45.809,45.809,0,0,0-.837-5.424c-.13-.993,0-2.018-.09-3.02-.1-1.154-.325-2.3-.475-3.447-.03-.234.053-.481.041-.719C.11,91.9.018,90.967,0,90.031c-.013-.735.076-1.472.088-2.209.02-1.314.034-2.63.018-3.944-.021-1.75-.153-3.5-.083-5.248A7.925,7.925,0,0,1,.529,75c.175-.33-.239-.928-.155-1.359a29.552,29.552,0,0,0,1-4.679c.04-1.6.666-3.034.808-4.6a22.165,22.165,0,0,1,1.159-4.771C4.477,56.109,5.715,52.66,6.9,49.2c.3-.884.573-1.779.866-2.667a2.774,2.774,0,0,1,.282-.675c1.382-2.067,2.718-4.168,4.181-6.177a67.5,67.5,0,0,1,5.34-6.844A50.079,50.079,0,0,1,23.768,27.6c1.913-1.451,3.947-2.751,5.993-4.014a19.612,19.612,0,0,1,3.318-1.537c2.308-.882,4.627-1.741,6.974-2.509a23,23,0,0,1,4.234-1.023c2.906-.366,5.827-.681,8.751-.806a61.4,61.4,0,0,1,6.476.259c1.231.078,2.457.261,3.682.423,2.165.286,4.341.516,6.486.915,1.689.314,3.337.845,5.3,1.357-4.11-4.816-8.805-8.781-11.472-14.421l.586-.108L66.312,9.1l.335-.2c-.195-.429-.361-.874-.589-1.285A23.44,23.44,0,0,1,64.33,4.507c-.27-.731-.906-1.536-.2-2.489.258-.348.041-1.047.041-1.6,1.255-.664,1.157-.588,2.113.654C67.46,2.6,68.915,3.909,70.07,5.447a34.816,34.816,0,0,0,2.888,2.708c.958,1.022,2.133,1.844,3.063,2.888.644.722,1.582,1.193,1.936,2.2a.552.552,0,0,0,.848.263c.71.948,2.124,1.252,2.359,2.675.06.36.541.7.9.951.576.4,1.271.654,1.8,1.1a26.03,26.03,0,0,1,2.049,2.048c.381.4.653,1.032,1.109,1.206a1.315,1.315,0,0,1,.944,1.757c.975-.452,1.36.2,1.732.741.4.586.71,1.239,1.052,1.853a1.3,1.3,0,0,1,1.571,1.223c.053.275.46.715.662.693,1.35-.149,1.481.9,1.869,1.739,1.443-.009,1.47.03.955,1.253a11.909,11.909,0,0,1,1.812,1.621c.215.282-.019.906-.049,1.375a5.319,5.319,0,0,0-.837-.054,3.1,3.1,0,0,0-.654.2c.067.692.128,1.314.217,2.226L95,36.3c-.631.619-1.4,1.34-2.132,2.1-.65.68-1.209,1.449-1.881,2.1-1.727,1.677-3.517,3.287-5.237,4.971-1.111,1.087-2.174,2.227-3.2,3.4q-2.641,3.008-5.2,6.09c-.5.606-.814,1.364-1.259,2.02-.371.547-.835,1.029-1.212,1.572-.693,1-1.357,2.016-2.024,3.032a16.214,16.214,0,0,0-2.256,3.625c-.387,1.225-1.487,2.226-1.239,3.663a.85.85,0,0,1-.208.688c-.85.689-.617,1.706-.878,2.573a5.187,5.187,0,0,1-.755,1.2l-.367-.067-.287-3.273-.428.3-.2-.147a5.982,5.982,0,0,0,.524-1,2.5,2.5,0,0,0-.023-.822,2.348,2.348,0,0,0-.685.426c-.209.268-.31.621-.567.717L62.337,70.6a4.192,4.192,0,0,0-.947-4.841c1.16.4,1.914.334,1.645-1.081-.954-.177-1.047-.687-.422-2.72l.565.983.161-1.31h.606c.756-1.292,1.493-2.445,2.1-3.663.125-.254-.243-.752-.427-1.253l-.933,1.747-.214.052c-.018-.259-.145-.583-.036-.766.739-1.241,1.516-2.459,2.308-3.667a7.5,7.5,0,0,1,.836-.889l.532.957.713-1.013-1.381-.3A6.273,6.273,0,0,1,70.4,49.981h-.947l1.053-1.4c.515-.115.494,1.413,1.218.466l-.831-1.241,1.285-.209-.246-.243a9.994,9.994,0,0,1,1.091-1.85c1.244-1.353,2.58-2.621,3.88-3.923.346-.346.663-.727,1.039-1.036,1.938-1.594,3.891-3.168,5.834-4.754.1-.08.157-.208.111-.145-.869-.538-1.7-1.064-2.551-1.57a2.045,2.045,0,0,0-.57-.169,5.241,5.241,0,0,1-1.706-.431c-1.589-1.093-3.582-1.181-5.148-2.032-1.1-.6-2.324-.694-3.385-1.364a11.322,11.322,0,0,0-3.2-.821c-.9-.23-1.782-.57-2.693-.748-1.146-.223-2.317-.317-3.473-.492-1.714-.26-3.416-.682-5.138-.783-2.265-.133-4.546-.06-6.819-.005a40.619,40.619,0,0,0-9.465,1.532c-.7.185-1.35.111-1.745.875-.065.125-.667-.029-1.1-.059-.039.079-.108.42-.315.568-.128.092-.462-.136-.711-.171a4.662,4.662,0,0,0-.711,0l.139.669c-.767.538-1.577,1.141-2.43,1.675-.184.115-.524-.021-.792-.041l.109-1.1-2.1.789-.111.7-1.944.584.287.512c.586-.2,1.036-.33,1.467-.507a1.588,1.588,0,0,0,.684-.429c.466-.64.94-.632,1.672-.144a27.265,27.265,0,0,0-2.917,1.858c-.547.45-.995.9-1.753.81l.034.031c-.022-.607.452-1.367-.53-1.663a11.551,11.551,0,0,0-2.029,1.458c-.816.894-1.423,1.978-2.766,2.209-.173.03-.318.276-.457.438-1.221,1.423-2.449,2.841-3.652,4.28a10.627,10.627,0,0,0-1.194,1.66,7.437,7.437,0,0,0-.413,1.411,3.9,3.9,0,0,1-.251.53c.184.07.417.246.544.189.428-.194,1.145-.45,1.163-.72a2.144,2.144,0,0,1,1.331-1.964c.308-.157.416-.709.615-1.08.132-.247.2-.6.409-.721a1.86,1.86,0,0,0,1.158-1.574c.205,0,.41-.009.613,0,.171.009.341.042.512.064A.389.389,0,0,0,22.523,39.877ZM7.284,68.079l-.7-.169L6.919,70.7c.346-.368.727-.587.744-.831a8.311,8.311,0,0,0-.18-1.627c.229-.465.485-.92.679-1.4.21-.519.339-1.071.547-1.59s.518-.991.691-1.515c.184-.559.2-1.175.392-1.731.575-1.668,1.112-3.358,1.826-4.967,1.138-2.565,2.39-5.081,3.63-7.6.539-1.1,1.17-2.145,1.732-3.166l-1.539-.471c-1,1.892-2.118,3.77-3,5.755-1.31,2.956-2.462,5.982-3.647,8.992a5.285,5.285,0,0,0-.165,1.312c.045.241-.378.35-.462.582-.293.8-.393,1.681-.707,2.474A5.628,5.628,0,0,0,7.284,68.079ZM6.094,71.3l.3.165c-.353.789-.23,1.672-.95,2.518l1.066.8c.277-.984.538-1.751.7-2.538a7.2,7.2,0,0,0,.021-1.394c-.331.1-.663.195-.99.3C6.184,71.166,6.144,71.244,6.094,71.3ZM33.605,23.874l.125.465c1.588-.244,2.971-1.205,4.508-1.634,1.27-.354,2.766-.327,3.874-1.265l-.087-.274ZM4.916,83.125l.372.033.764-4.986-.361-.132L4.955,79.9c.018.278.185.712.036.944C4.478,81.641,5.024,82.369,4.916,83.125ZM67,9.157l-.3.265c.825,1.192,1.409,2.6,3.029,3.08ZM6.371,75.635l-.234-.2-1.015.729.715.9a2.369,2.369,0,0,0-.228.169,3.344,3.344,0,0,0-.245.295C6.968,77.346,5.7,76.093,6.371,75.635ZM27.5,35.389l-1.029-.1.141.842a8.353,8.353,0,0,0-1.87.052c-.177.042-.207.7-.343,1.221l-.7.11c-.2.408-.362,1.053-.558,1.065-1.179.072-.593.811-.586,1.333l-.031-.03c.588.1,1.131.426,1.247-.687.054-.514,1.3-.659,1.38-1.563.1.018.237.087.28.047q1.1-1.008,2.172-2.049c.021-.02-.087-.174-.136-.266ZM4.915,109.426v-6.031l-.138-.011v6.036Z" transform="matrix(0.695, 0.719, -0.719, 0.695, 79.269, -0.002)" fill="#ffe6ff"/>
</svg>